<?xml version="1.0" encoding="utf-8"?>
<!-- Generator: Adobe Illustrator 22.0.0, SVG Export Plug-In . SVG Version: 6.00 Build 0)  -->
<svg version="1.1" id="图层_1" xmlns="http://www.w3.org/2000/svg" xmlns:xlink="http://www.w3.org/1999/xlink" x="0px" y="0px"
	 viewBox="0 0 220 220" style="enable-background:new 0 0 220 220;" xml:space="preserve">
<style type="text/css">
	.st0{fill:#5B77A9;}
</style>
<path class="st0" d="M123.8,147.1c1.1,0,4,0,4,3.7c0,1.5-0.6,3.8-4,3.8H99.2v15.1c0,2.2,1,3.4,3.5,3.4h25.2c4,0,4,3.4,4,3.9
	c0,0.8,0,4-4,4h-27.7c-7.1,0-10-2.5-10-9.9v-39c0-7.3,2.8-9.9,10-9.9h26.5c4,0,4,3.2,4,3.9c0,1.2-0.4,4-4,4h-23.9
	c-2.4,0-3.5,1.2-3.5,3.4v13.6L123.8,147.1L123.8,147.1z M180,178.5c0,3.5-2.6,4-4.2,4c-2.6,0-4.4-1-4.4-4v-25.3c0-3.6-1.2-9.7-9-9.7
	c-8.9,0-10.8,7.9-10.8,10.8v24.2c0,3.4-2.4,4-4.2,4c-2.7,0-4.4-1.2-4.4-4v-38.3c0-4,3.1-4.1,4.3-4.1c2.5,0,4.3,1,4.3,4.1v2.7
	c2.2-2.6,6.1-6.8,13.4-6.8c9.2,0,15,5.4,15,15.8L180,178.5L180,178.5z M73.6,72.2h18.2c3,0,4.2-1.6,4.2-4.2V51.9
	c0-3-1.6-4.2-4.2-4.2H73.6V72.2z M64.5,47.7H46.5c-2.8,0-4.2,1.3-4.2,4.2V68c0,2.7,1.2,4.2,4.2,4.2h18.1
	C64.5,72.2,64.5,47.7,64.5,47.7z M73.6,99.4c0,1.1,0,4.2-4.5,4.2c-4.2,0-4.6-2.5-4.6-4.2V80.5H44.2c-7.4,0-10.9-2.5-10.9-10.9V50.3
	c0-8.5,3.5-10.8,10.9-10.8h20.3v-9.2c0-1.2,0.2-4.1,4.3-4.1c3.4,0,4.8,1.2,4.8,4.1v9.2h20.5c7.5,0,10.9,2.5,10.9,10.8v19.3
	c0,8.2-3.2,10.9-10.9,10.9H73.6L73.6,99.4L73.6,99.4z M189.5,137.9c-2.5,0-4.6-2-4.6-4.6c0-0.4,0-0.8,0.1-1.1
	c1.6-6.5,2.5-13.1,2.5-19.9c0-44.2-35.9-80.2-80-80.2c-2.5,0-4.6-2.1-4.6-4.6s2.1-4.6,4.6-4.6c49.2,0,89.2,40.1,89.2,89.4
	c0,7.5-0.9,14.9-2.8,22.1C193.4,136.5,191.6,137.9,189.5,137.9 M107.5,201.7c-49.2,0-89.2-40.1-89.2-89.4c0-7.1,0.8-14.2,2.5-21.1
	c0.6-2.5,3.1-4,5.5-3.4c2.5,0.6,4,3.1,3.4,5.5c-1.5,6.2-2.2,12.6-2.2,18.9c0,44.2,35.9,80.2,80,80.2c2.5,0,4.6,2.1,4.6,4.6
	S110,201.7,107.5,201.7"/>
</svg>
