<?xml version="1.0" standalone="no"?><!DOCTYPE svg PUBLIC "-//W3C//DTD SVG 1.1//EN"
  "http://www.w3.org/Graphics/SVG/1.1/DTD/svg11.dtd">
<svg t="1535597688543" class="icon" style="" viewBox="0 0 1024 1024" version="1.1" xmlns="http://www.w3.org/2000/svg"
     p-id="9441" xmlns:xlink="http://www.w3.org/1999/xlink" width="128" height="128">
  <defs>
    <style type="text/css"></style>
  </defs>
  <path
    d="M512 62.39C263.688 62.39 62.39 263.688 62.39 512S263.688 961.61 512 961.61 961.61 760.312 961.61 512 760.312 62.39 512 62.39z m0 249.783c61.97 0 112.209 50.237 112.209 112.207 0 61.972-50.238 112.209-112.209 112.209S399.792 486.352 399.792 424.38c0-61.97 50.238-112.207 112.208-112.207z m193.05 397.61h-386.1c-6.137 0-11.007-4.137-10.673-10.264 4.135-75.856 49.704-140.172 114.471-171.722 3.582-1.745 7.842-1.072 11.035 1.312 21.822 16.285 48.894 26.056 78.217 26.056s56.394-9.58 78.217-25.865a10.652 10.652 0 0 1 11.035-1.024c64.766 31.55 110.336 95.37 114.47 171.226 0.335 6.129-4.535 10.28-10.672 10.28z"
    p-id="9442" fill="#e6e6e6"></path>
</svg>
